<svg width="335" height="171" viewBox="0 0 335 171" fill="none" xmlns="http://www.w3.org/2000/svg">
<path d="M25.6655 146.92C24.6465 146.757 23.4462 146.984 22.0645 147.6C20.6537 148.212 19.175 149.155 17.6285 150.432C19.0669 152.273 21.2146 154.346 24.0717 156.652C26.9042 158.923 30.146 161.156 33.7971 163.349L33.0325 168.153C29.0505 165.788 25.4458 163.303 22.2182 160.7C18.9615 158.092 16.3844 155.622 14.4869 153.29C12.9324 154.804 11.765 156.23 10.9848 157.569C10.1754 158.902 9.55657 160.446 9.1283 162.199L5.02029 160.157C5.64582 157.54 7.17259 154.887 9.6006 152.199C12.0333 149.481 14.797 147.309 17.892 145.682L7.7601 144.07L8.44831 139.746L18.5365 141.352C16.0997 138.844 14.1591 135.938 12.7149 132.634C11.2416 129.324 10.6139 126.329 10.8318 123.647L15.3271 122.974C15.19 124.774 15.2967 126.447 15.6473 127.996C15.9734 129.51 16.6234 131.241 17.5972 133.187C20.1251 131.559 23.3441 129.997 27.2542 128.5C31.1643 127.003 35.3937 125.751 39.9423 124.743L39.1707 129.591C35.0145 130.571 31.2205 131.714 27.7888 133.018C24.3571 134.323 21.6695 135.641 19.7259 136.974C20.7111 138.474 21.7234 139.71 22.7628 140.681C23.7778 141.619 24.771 142.225 25.7423 142.499L36.835 144.265L36.1468 148.588L25.6655 146.92Z" fill="#FFF5E5"/>
<path d="M56.7471 127.605L55.1286 131.241L37.5547 123.418L38.8495 120.51L26.5546 106.808C24.3152 107.489 22.8479 108.611 22.1525 110.173C21.9727 110.577 21.7898 111.06 21.6039 111.623L18.7271 109.277C18.8891 108.769 19.036 108.366 19.1678 108.07C21.7454 102.279 31.0035 100.366 46.9419 102.33L48.2367 99.4208L59.7507 104.546L58.1322 108.182L50.0522 104.585L42.6071 121.311L56.7471 127.605ZM45.0717 106.531C39.2979 105.8 34.591 105.609 30.9509 105.957L40.6658 116.429L45.0717 106.531Z" fill="#FFF5E5"/>
<path d="M43.0259 94.3749C41.2936 93.2 39.9394 91.7828 38.9633 90.1232C37.9793 88.4228 37.4905 86.6486 37.4971 84.8007C37.5202 82.9284 38.0862 81.1749 39.1949 79.5402C39.7576 78.7106 40.335 78.0693 40.9274 77.6161C41.5363 77.1385 42.2349 76.6862 43.0233 76.2591C43.7952 75.8564 44.2804 75.5087 44.4789 75.2159C44.6941 74.8987 44.7328 74.6578 44.5951 74.4932C44.433 74.312 44.1202 74.0642 43.6566 73.7498L42.9979 73.303L45.3105 70.9175C46.0764 71.2588 46.6667 71.5702 47.0815 71.8515C48.1306 72.5631 48.7206 73.4263 48.8516 74.4413C48.9825 75.4563 48.7583 76.3907 48.1791 77.2447C47.8151 77.7815 47.4109 78.2198 46.9666 78.5597C46.5389 78.8751 45.9762 79.2059 45.2784 79.5519C44.564 79.9224 43.9765 80.2897 43.5157 80.654C43.047 80.9773 42.6224 81.4196 42.2417 81.9807C41.4474 83.1519 41.1837 84.4335 41.4506 85.8257C41.6931 87.2014 42.4923 88.4915 43.8482 89.6961L49.0858 81.974L52.3064 84.1584L47.0937 91.8439C48.6585 92.4779 50.2111 92.6047 51.7514 92.2245C53.2673 91.8278 54.4969 90.9341 55.4401 89.5434C56.3668 88.177 56.7786 86.7821 56.6755 85.3585C56.5889 83.9105 56.0228 82.6181 54.9771 81.4814L58.2463 79.1035C59.7949 80.7594 60.6213 82.7448 60.7254 85.0597C60.8296 87.3745 60.1536 89.6055 58.6973 91.7526C57.5389 93.4605 56.0977 94.745 54.3737 95.6061C52.6419 96.4264 50.7831 96.7509 48.7975 96.5797C46.8041 96.3675 44.8802 95.6326 43.0259 94.3749ZM33.6267 81.0534C33.1272 80.1091 32.7076 79.4148 32.3677 78.9706C32.02 78.4853 31.6387 78.1021 31.224 77.8208C31.0044 77.6718 30.7922 77.617 30.5875 77.6562C30.3583 77.6789 30.1941 77.7635 30.0948 77.9099C29.9459 78.1295 29.956 78.4035 30.1251 78.7319C30.2863 79.0194 30.6275 79.3042 31.1485 79.5863L28.9011 81.4818C28.5753 81.332 28.3391 81.2075 28.1927 81.1082C27.29 80.4959 26.7732 79.6823 26.6423 78.6673C26.5035 77.6114 26.7734 76.5832 27.4518 75.5829C28.0807 74.6558 28.8865 74.098 29.8692 73.9096C30.8441 73.6802 31.7829 73.8717 32.6856 74.484C33.9787 75.3611 35.2136 76.8755 36.3903 79.0272L33.6267 81.0534ZM31.4298 68.9301L34.7239 66.5156L39.382 74.5374L36.557 76.5755L31.4298 68.9301Z" fill="#FFF5E5"/>
<path d="M54.7668 62.3778C53.5192 62.1884 52.507 62.2429 51.7302 62.5416C50.9533 62.8402 50.1935 63.3476 49.4507 64.0639C49.3234 64.1867 49.1317 64.4125 48.8755 64.7415L47.0894 61.4877C47.3895 61.0345 47.6351 60.7158 47.8261 60.5316C50.1817 58.2601 53.4745 57.7674 57.7044 59.0535C61.9139 60.3185 66.4293 62.5376 71.2504 65.7109C68.8796 60.789 66.7286 55.819 64.7973 50.8008L67.7259 47.9768L87.626 59.5034L84.3791 62.6344L70.2385 54.2773C72.5146 59.823 74.8301 64.9211 77.185 69.5717L74.1609 72.4878C68.1483 68.3338 63.3006 65.4727 59.6179 63.9046L67.0942 79.3024L64.0383 82.2492L54.7668 62.3778Z" fill="#FFF5E5"/>
<path d="M107.513 48.9706C105.393 50.0696 103.31 50.568 101.265 50.4659C99.2458 50.3503 97.4236 49.7176 95.7982 48.5678C94.1727 47.4179 92.8513 45.8615 91.8337 43.8984C90.7619 41.8307 90.3163 39.7539 90.4969 37.6679C90.6639 35.5557 91.3941 33.6332 92.6874 31.9002C93.9671 30.141 95.6801 28.7052 97.8264 27.5927C99.423 26.7651 100.959 26.301 102.434 26.2004C103.91 26.0997 105.219 26.351 106.361 26.9541C107.491 27.531 108.36 28.4083 108.971 29.5861C109.582 30.764 109.77 31.9611 109.538 33.1776C109.291 34.3679 108.675 35.5174 107.689 36.6262C109.415 36.5615 111.033 36.7357 112.542 37.1488C113.591 39.4279 113.656 41.6355 112.738 43.7718C111.846 45.8945 110.104 47.6275 107.513 48.9706ZM95.7598 41.8634C96.8045 43.8787 98.2156 45.2559 99.9933 45.9947C101.757 46.7074 103.66 46.5347 105.702 45.4764C106.958 44.8252 107.936 44.0528 108.635 43.1591C109.346 42.2258 109.551 41.3393 109.249 40.4999C108.111 40.2264 106.805 40.1729 105.33 40.3394C103.868 40.4662 102.627 40.7941 101.606 41.3233L101.371 41.4454L99.7021 38.226L102.725 36.659C103.903 36.0485 104.703 35.2852 105.125 34.3693C105.546 33.4533 105.533 32.5635 105.086 31.6997C104.624 30.8098 103.865 30.3066 102.809 30.1902C101.778 30.0601 100.596 30.3411 99.261 31.033C97.9262 31.7249 96.8583 32.6437 96.0575 33.7894C95.2693 34.8953 94.8261 36.1544 94.728 37.5667C94.6561 38.9654 95 40.3976 95.7598 41.8634Z" fill="#FFF5E5"/>
<path d="M130.578 31.809C129.607 34.2671 128.288 36.4934 126.619 38.4879C124.942 40.4541 122.934 41.7973 120.595 42.5174C119.919 42.7257 119.304 42.7301 118.749 42.5308C118.222 42.3229 117.876 41.9512 117.711 41.4159C117.217 39.8099 117.064 37.96 117.252 35.8661C117.44 33.7723 118.026 31.6177 119.009 29.4023C119.993 27.1869 121.346 25.1199 123.069 23.2013L119.579 19.2323L124.017 17.8658L139.949 36.0953L135.511 37.4618L130.578 31.809ZM121.31 37.6242C121.388 37.8778 121.568 37.9612 121.849 37.8744C122.638 37.6315 123.622 36.619 124.801 34.8371C125.971 33.027 126.997 30.9991 127.879 28.7534L125.426 25.8993C124.438 27.0982 123.577 28.4585 122.843 29.9802C122.136 31.4932 121.641 32.9412 121.358 34.3242C121.074 35.7071 121.058 36.8071 121.31 37.6242Z" fill="#FFF5E5"/>
<path d="M151.873 35.0103C149.798 35.2837 147.849 35.0498 146.027 34.3086C144.23 33.5344 142.736 32.3485 141.544 30.7512C140.352 29.1538 139.612 27.259 139.323 25.0669C139.05 22.9916 139.223 21.0359 139.844 19.1998C140.46 17.3344 141.461 15.7901 142.846 14.5668C144.231 13.3436 145.903 12.603 147.861 12.345C148.855 12.214 149.718 12.2193 150.45 12.3607C151.212 12.4982 152.014 12.7196 152.857 13.0248C153.671 13.3339 154.253 13.4653 154.604 13.4191C154.984 13.3691 155.19 13.2379 155.221 13.0256C155.249 12.784 155.226 12.3856 155.153 11.8303L155.09 11.348L158.537 11.7858C158.686 12.242 158.79 12.6892 158.848 13.1276C159.013 14.3845 158.76 15.3991 158.089 16.1714C157.418 16.9438 156.571 17.3974 155.548 17.5322C154.934 17.6131 154.381 17.5966 153.891 17.4829C153.4 17.3691 152.81 17.1792 152.121 16.9132C151.34 16.6295 150.704 16.4308 150.213 16.317C149.723 16.2033 149.156 16.1887 148.513 16.2735C146.817 16.4968 145.52 17.3666 144.619 18.8828C143.719 20.3991 143.411 22.2386 143.696 24.4015C144 26.7106 144.858 28.4857 146.271 29.7269C147.683 30.9682 149.383 31.4578 151.371 31.196C152.978 30.9842 154.276 30.3375 155.263 29.2558C156.247 28.1449 156.779 26.7665 156.86 25.1204L160.853 25.977C160.786 27.5023 160.362 28.9111 159.581 30.2035C158.829 31.492 157.781 32.5667 156.437 33.4277C155.09 34.2594 153.569 34.7869 151.873 35.0103Z" fill="#FFF5E5"/>
<path d="M181.978 11.917L181.19 18.2805L192.249 19.6512L193.038 13.2878L197.163 13.7991L194.443 35.742L190.318 35.2307L191.759 23.6009L180.7 22.2302L179.259 33.8599L175.133 33.3486L177.853 11.4057L181.978 11.917Z" fill="#FFF5E5"/>
<path d="M214.461 34.3624C212.265 35.8323 209.914 36.913 207.407 37.6045C204.909 38.2678 202.493 38.2307 200.16 37.4929C199.486 37.2796 198.977 36.9331 198.634 36.4536C198.319 35.983 198.246 35.4806 198.415 34.9465C198.921 33.3443 199.848 31.7356 201.193 30.1204C202.539 28.5052 204.246 27.0662 206.315 25.8034C208.384 24.5406 210.673 23.6101 213.181 23.0118L212.568 17.7627L216.995 19.1626L219.731 43.2177L215.304 41.8178L214.461 34.3624ZM203.531 33.8743C203.451 34.1273 203.551 34.2983 203.833 34.3871C204.62 34.636 206.005 34.3628 207.988 33.5676C209.979 32.7442 211.977 31.6597 213.979 30.314L213.585 26.5719C212.091 26.996 210.609 27.625 209.139 28.4589C207.698 29.3017 206.467 30.2112 205.447 31.1874C204.427 32.1635 203.789 33.0592 203.531 33.8743Z" fill="#FFF5E5"/>
<path d="M246.642 49.5627C247.545 48.2518 247.736 46.1817 247.215 43.3525C243.475 44.1048 238.737 46.1217 233.004 49.4031L229.326 46.869C232.553 44.9394 235.59 43.3627 238.439 42.1387C241.304 40.8905 243.851 40.0504 246.082 39.6184C245.477 38.0554 244.738 36.6335 243.866 35.3527C243.011 34.0475 242.11 33.0688 241.163 32.4164L240.799 32.1656L244.063 29.6886C245.938 31.1239 247.446 33.0932 248.585 35.5966C249.765 38.0924 250.464 40.7935 250.681 43.6999L254.871 37.6186L258.258 39.9519L254.193 45.8512C256.821 45.1554 259.535 44.9312 262.336 45.1785C265.161 45.4425 267.535 46.1289 269.456 47.2377L268.329 51.1334L267.965 50.8825C267.018 50.2302 265.783 49.737 264.258 49.4029C262.751 49.0446 261.159 48.8608 259.483 48.8515C259.857 51.1142 259.98 53.7942 259.851 56.8915C259.746 60.0056 259.354 63.4055 258.676 67.0914L254.816 64.4319C255.895 58.0863 256.144 52.9955 255.565 49.1595C254.27 49.3769 253.136 49.7234 252.164 50.1992C251.208 50.6507 250.497 51.2163 250.028 51.896L245.713 58.1594L242.326 55.8261L246.642 49.5627Z" fill="#FFF5E5"/>
<path d="M273.899 74.3553C271.264 74.5516 268.685 74.3327 266.163 73.6986C263.663 73.0445 261.58 71.8215 259.913 70.0295C259.432 69.5114 259.16 68.9591 259.097 68.3728C259.055 67.808 259.239 67.335 259.65 66.9535C260.88 65.8092 262.479 64.8661 264.446 64.124C266.413 63.382 268.608 62.9716 271.03 62.8928C273.453 62.8139 275.903 63.1325 278.38 63.8483L280.434 58.9792L283.596 62.3796L274.119 84.6577L270.957 81.2574L273.899 74.3553ZM264.63 68.5426C264.435 68.7233 264.438 68.9216 264.639 69.1375C265.201 69.742 266.541 70.187 268.658 70.4726C270.797 70.7381 273.07 70.779 275.475 70.5952L276.977 67.1454C275.468 66.7776 273.868 66.5943 272.179 66.5954C270.509 66.6182 268.99 66.8029 267.621 67.1494C266.253 67.496 265.256 67.9604 264.63 68.5426Z" fill="#FFF5E5"/>
<path d="M304.614 90.8924L299.145 94.4864L296.959 91.1602L299.287 89.6303L296.665 85.6389L281.327 95.7167L279.045 92.2427L294.382 82.1649L291.759 78.1735L289.431 79.7034L287.246 76.3773L292.715 72.7833L304.614 90.8924Z" fill="#FFF5E5"/>
<path d="M290.44 114.399C289.493 112.207 289.143 110.094 289.389 108.061C289.647 106.055 290.407 104.282 291.668 102.742C292.93 101.201 294.576 99.993 296.606 99.1165C298.744 98.1933 300.847 97.8953 302.915 98.2226C305.01 98.5382 306.876 99.4022 308.514 100.815C310.178 102.215 311.49 104.025 312.448 106.245C313.161 107.896 313.516 109.46 313.512 110.939C313.508 112.418 313.165 113.706 312.483 114.803C311.828 115.889 310.891 116.695 309.673 117.221C308.455 117.747 307.248 117.851 306.051 117.533C304.881 117.203 303.778 116.507 302.741 115.445C302.684 117.172 302.396 118.774 301.877 120.25C299.53 121.135 297.323 121.044 295.257 119.978C293.203 118.938 291.597 117.078 290.44 114.399ZM298.359 103.176C296.275 104.076 294.801 105.387 293.939 107.108C293.104 108.817 293.142 110.728 294.053 112.839C294.614 114.138 295.316 115.168 296.158 115.928C297.039 116.704 297.908 116.97 298.767 116.728C299.12 115.612 299.266 114.313 299.204 112.83C299.18 111.363 298.941 110.102 298.485 109.047L298.38 108.803L301.709 107.365L303.059 110.492C303.585 111.709 304.29 112.561 305.173 113.046C306.057 113.532 306.946 113.582 307.839 113.196C308.759 112.799 309.315 112.077 309.505 111.031C309.708 110.013 309.511 108.813 308.915 107.433C308.319 106.053 307.478 104.923 306.392 104.043C305.344 103.179 304.119 102.648 302.717 102.45C301.327 102.28 299.874 102.522 298.359 103.176Z" fill="#FFF5E5"/>
<path d="M319.823 128.569C320.055 129.544 320.164 130.443 320.148 131.265C320.132 132.087 320.05 133.016 319.903 134.051C319.812 134.558 319.749 135.058 319.715 135.551C319.688 136.072 319.719 136.52 319.808 136.892C319.993 137.667 320.541 137.93 321.452 137.682L321.914 137.526L322.211 140.865C321.665 141.117 321.105 141.311 320.532 141.448C319.27 141.749 318.253 141.552 317.481 140.857C316.709 140.163 316.197 139.285 315.943 138.224C315.793 137.593 315.735 136.97 315.77 136.356C315.806 135.741 315.896 134.977 316.042 134.063C316.18 133.121 316.257 132.36 316.27 131.781C316.312 131.195 316.265 130.615 316.128 130.042C315.888 129.038 315.428 128.315 314.746 127.871C314.093 127.421 313.408 127.281 312.691 127.452C311.888 127.644 311.264 128.141 310.819 128.945C310.41 129.77 310.346 130.77 310.626 131.946L311.15 134.139L307.623 134.981L307.068 132.658C306.822 131.626 306.366 130.856 305.699 130.348C305.068 129.862 304.336 129.719 303.505 129.917C302.616 130.129 301.97 130.662 301.568 131.516C301.172 132.398 301.183 133.714 301.6 135.463C302.024 137.241 302.74 138.525 303.747 139.316C304.783 140.099 305.966 140.423 307.298 140.287L306.822 144.583C305.52 144.712 304.26 144.452 303.045 143.802C301.857 143.146 300.806 142.169 299.89 140.872C299.01 139.597 298.361 138.085 297.944 136.336C297.253 133.44 297.293 131.066 298.063 129.215C298.841 127.393 300.19 126.253 302.112 125.794C303.173 125.541 304.163 125.562 305.082 125.858C306.037 126.176 306.856 126.753 307.541 127.59C307.818 126.463 308.361 125.5 309.17 124.701C309.987 123.93 310.94 123.415 312.029 123.155C313.09 122.902 314.156 122.92 315.225 123.211C316.294 123.501 317.239 124.094 318.059 124.989C318.886 125.913 319.474 127.107 319.823 128.569Z" fill="#FFF5E5"/>
<path d="M300.929 152.788C300.837 151.909 301.054 151.145 301.579 150.497C302.104 149.849 302.807 149.48 303.686 149.388C304.566 149.296 305.33 149.513 305.977 150.038C306.625 150.563 306.995 151.265 307.087 152.145C307.179 153.025 306.962 153.788 306.437 154.436C305.912 155.084 305.209 155.453 304.33 155.545C303.45 155.637 302.686 155.421 302.039 154.895C301.391 154.37 301.021 153.668 300.929 152.788ZM330.011 151.973L310.636 153.775L310.223 149.816L329.552 147.575L330.011 151.973Z" fill="#FFF5E5"/>
</svg>
