<svg width="242" height="239" viewBox="0 0 242 239" fill="none" xmlns="http://www.w3.org/2000/svg">
<path d="M215.224 139.139C216.226 139.386 217.441 139.261 218.87 138.763C220.327 138.272 221.879 137.455 223.527 136.313C222.249 134.358 220.282 132.112 217.629 129.575C214.997 127.073 211.954 124.577 208.5 122.085L209.665 117.362C213.434 120.053 216.818 122.831 219.815 125.696C222.842 128.568 225.203 131.246 226.898 133.729C228.574 132.351 229.857 131.027 230.747 129.759C231.665 128.498 232.411 127.012 232.985 125.301L236.907 127.681C236.064 130.236 234.32 132.751 231.675 135.226C229.023 137.73 226.087 139.662 222.866 141.024L232.827 143.481L231.779 147.732L221.861 145.285C224.079 147.988 225.769 151.047 226.931 154.461C228.121 157.882 228.495 160.92 228.053 163.574L223.517 163.867C223.805 162.086 223.839 160.409 223.619 158.836C223.421 157.3 222.919 155.521 222.112 153.5C219.456 154.91 216.118 156.196 212.096 157.36C208.074 158.524 203.754 159.417 199.137 160.039L200.313 155.273C204.537 154.645 208.413 153.825 211.942 152.813C215.471 151.801 218.26 150.713 220.308 149.548C219.453 147.97 218.547 146.654 217.593 145.599C216.66 144.579 215.722 143.892 214.777 143.538L203.871 140.847L204.92 136.597L215.224 139.139Z" fill="#FFF5E5"/>
<path d="M183.398 152.388L185.739 149.17L201.295 160.485L199.422 163.06L208.589 179.025C210.921 178.826 212.59 178.035 213.596 176.652C213.856 176.294 214.136 175.86 214.435 175.348L216.759 178.242C216.495 178.706 216.267 179.069 216.076 179.331C212.348 184.457 202.894 184.397 187.716 179.153L185.843 181.728L175.651 174.314L177.992 171.095L185.145 176.298L195.914 161.493L183.398 152.388ZM190.421 175.434C195.916 177.352 200.479 178.521 204.112 178.94L196.795 166.672L190.421 175.434Z" fill="#FFF5E5"/>
<path d="M189.742 187.625C191.058 189.253 191.942 191.002 192.393 192.874C192.841 194.787 192.793 196.627 192.249 198.393C191.683 200.178 190.632 201.691 189.096 202.933C188.317 203.563 187.578 204.009 186.879 204.27C186.158 204.55 185.358 204.78 184.479 204.96C183.624 205.121 183.059 205.312 182.783 205.535C182.485 205.776 182.378 205.995 182.462 206.193C182.565 206.413 182.792 206.741 183.144 207.177L183.645 207.796L180.739 209.406C180.105 208.857 179.631 208.388 179.315 207.998C178.518 207.012 178.205 206.015 178.374 205.005C178.544 203.996 179.03 203.167 179.833 202.518C180.337 202.111 180.851 201.809 181.375 201.613C181.876 201.435 182.51 201.282 183.279 201.154C184.07 201.007 184.739 200.826 185.286 200.611C185.828 200.438 186.363 200.139 186.89 199.712C187.99 198.822 188.615 197.673 188.764 196.263C188.932 194.876 188.542 193.41 187.595 191.863L180.339 197.73L177.893 194.704L185.114 188.865C183.801 187.803 182.352 187.231 180.768 187.147C179.202 187.086 177.766 187.584 176.459 188.64C175.175 189.678 174.376 190.894 174.061 192.286C173.723 193.696 173.889 195.097 174.559 196.489L170.74 197.814C169.739 195.78 169.526 193.64 170.099 191.395C170.672 189.149 171.967 187.211 173.984 185.58C175.589 184.282 177.341 183.472 179.241 183.149C181.137 182.868 183.01 183.097 184.86 183.838C186.705 184.621 188.333 185.883 189.742 187.625ZM194.864 203.103C195.067 204.152 195.267 204.938 195.463 205.462C195.655 206.027 195.908 206.505 196.223 206.895C196.39 207.101 196.577 207.215 196.785 207.237C197.01 207.282 197.192 207.249 197.33 207.137C197.536 206.971 197.606 206.705 197.54 206.342C197.469 206.02 197.225 205.648 196.809 205.227L199.51 204.067C199.778 204.305 199.968 204.492 200.079 204.63C200.765 205.478 201.023 206.407 200.853 207.416C200.679 208.467 200.122 209.372 199.182 210.132C198.311 210.836 197.378 211.136 196.383 211.031C195.384 210.967 194.541 210.511 193.855 209.663C192.873 208.448 192.131 206.64 191.631 204.239L194.864 203.103ZM193.443 215.342L189.589 216.695L187.463 207.665L190.759 206.536L193.443 215.342Z" fill="#FFF5E5"/>
<path d="M168.123 214.666C169.203 215.319 170.159 215.657 170.991 215.679C171.823 215.701 172.719 215.523 173.68 215.146C173.844 215.081 174.108 214.946 174.471 214.741L174.874 218.43C174.423 218.734 174.074 218.934 173.827 219.031C170.78 220.227 167.55 219.42 164.136 216.611C160.733 213.83 157.412 210.05 154.175 205.271C154.479 210.726 154.561 216.141 154.422 221.516L150.635 223.002L136.671 204.729L140.87 203.082L150.729 216.219C150.751 210.225 150.566 204.629 150.173 199.431L154.084 197.896C158.046 204.037 161.427 208.537 164.228 211.397L163.223 194.31L167.175 192.759L168.123 214.666Z" fill="#FFF5E5"/>
<path d="M115.15 203.662C117.533 203.819 119.573 204.47 121.27 205.616C122.938 206.759 124.171 208.243 124.967 210.068C125.763 211.893 126.088 213.909 125.943 216.115C125.791 218.439 125.097 220.447 123.864 222.139C122.628 223.86 121.008 225.127 119.005 225.941C116.999 226.784 114.791 227.127 112.378 226.968C110.584 226.85 109.029 226.453 107.715 225.776C106.4 225.098 105.41 224.206 104.744 223.099C104.076 222.021 103.786 220.82 103.873 219.496C103.96 218.172 104.418 217.05 105.246 216.13C106.073 215.239 107.195 214.574 108.612 214.135C107.102 213.297 105.807 212.311 104.73 211.177C105.011 208.684 106.098 206.761 107.989 205.408C109.851 204.053 112.238 203.471 115.15 203.662ZM121.531 215.825C121.679 213.56 121.184 211.652 120.045 210.1C118.904 208.577 117.187 207.74 114.892 207.59C113.48 207.497 112.244 207.652 111.183 208.055C110.091 208.486 109.458 209.138 109.282 210.013C110.114 210.836 111.204 211.558 112.552 212.178C113.869 212.826 115.101 213.187 116.248 213.263L116.513 213.28L116.275 216.898L112.877 216.675C111.553 216.588 110.474 216.828 109.639 217.393C108.804 217.959 108.355 218.727 108.291 219.698C108.226 220.698 108.615 221.521 109.459 222.168C110.273 222.812 111.43 223.183 112.931 223.282C114.431 223.381 115.82 223.147 117.098 222.581C118.345 222.042 119.376 221.194 120.19 220.036C120.976 218.876 121.422 217.473 121.531 215.825Z" fill="#FFF5E5"/>
<path d="M87.2258 205.139C89.4601 203.727 91.8393 202.709 94.3634 202.084C96.8779 201.487 99.2915 201.588 101.604 202.387C102.273 202.618 102.773 202.977 103.103 203.466C103.405 203.945 103.465 204.449 103.282 204.978C102.733 206.567 101.765 208.15 100.377 209.729C98.9897 211.309 97.2451 212.702 95.1435 213.91C93.0419 215.117 90.7295 215.987 88.2065 216.519L88.6805 221.783L84.2918 220.266L82.1914 196.147L86.5801 197.664L87.2258 205.139ZM98.1395 205.915C98.2262 205.664 98.1302 205.491 97.8515 205.394C97.0713 205.125 95.6796 205.361 93.6763 206.104C91.6634 206.875 89.6383 207.906 87.601 209.198L87.8958 212.95C89.401 212.565 90.8992 211.975 92.3902 211.181C93.8534 210.376 95.1077 209.499 96.1529 208.551C97.1981 207.602 97.8603 206.723 98.1395 205.915Z" fill="#FFF5E5"/>
<path d="M73.2278 189.548C74.9771 190.698 76.2992 192.148 77.194 193.9C78.0479 195.661 78.4038 197.535 78.2617 199.523C78.1197 201.511 77.4415 203.429 76.2273 205.277C75.0779 207.026 73.6684 208.393 71.9987 209.377C70.3128 210.386 68.546 210.9 66.6982 210.921C64.8504 210.941 63.1011 210.409 61.4503 209.325C60.6126 208.774 59.9629 208.206 59.5011 207.621C59.0146 207.019 58.5521 206.327 58.1135 205.545C57.6996 204.779 57.3448 204.299 57.0491 204.105C56.7288 203.894 56.4874 203.859 56.3248 203.999C56.146 204.164 55.9028 204.48 55.5952 204.948L55.3281 205.355L53.005 202.77C53.1901 202.327 53.4041 201.921 53.6469 201.552C54.343 200.492 55.1976 199.889 56.2105 199.744C57.2235 199.598 58.1611 199.808 59.0234 200.375C59.5408 200.715 59.9481 201.088 60.2452 201.495C60.5422 201.902 60.8647 202.431 61.2124 203.083C61.6179 203.808 61.9692 204.374 62.2663 204.781C62.5634 205.188 62.9829 205.569 63.525 205.926C64.954 206.865 66.5048 207.055 68.1773 206.496C69.8498 205.937 71.285 204.745 72.483 202.922C73.762 200.976 74.2726 199.071 74.0148 197.209C73.7571 195.346 72.7905 193.864 71.1151 192.764C69.76 191.873 68.3553 191.515 66.901 191.688C65.4305 191.886 64.1269 192.581 62.9901 193.774L60.5276 190.516C61.575 189.405 62.8167 188.616 64.2527 188.149C65.664 187.665 67.1595 187.536 68.7391 187.763C70.3026 188.014 71.7988 188.609 73.2278 189.548Z" fill="#FFF5E5"/>
<path d="M35.8983 185.509L41.1517 181.832L34.7621 172.702L29.5087 176.379L27.1252 172.973L45.2405 160.295L47.6239 163.701L38.0228 170.42L44.4124 179.55L54.0135 172.831L56.3969 176.237L38.2817 188.914L35.8983 185.509Z" fill="#FFF5E5"/>
<path d="M32.2729 146.176C34.7691 147.043 37.0482 148.27 39.1101 149.854C41.1442 151.448 42.5695 153.399 43.3859 155.705C43.622 156.372 43.652 156.987 43.4759 157.55C43.2899 158.085 42.9329 158.446 42.4049 158.633C40.8208 159.193 38.9788 159.423 36.879 159.322C34.7791 159.221 32.6021 158.725 30.3478 157.834C28.0936 156.943 25.9723 155.677 23.9839 154.035L20.163 157.686L18.6137 153.309L36.167 136.635L37.7163 141.012L32.2729 146.176ZM38.4673 155.195C38.7174 155.106 38.7933 154.923 38.6949 154.645C38.4195 153.867 37.3671 152.926 35.5379 151.822C33.6808 150.728 31.6121 149.787 29.3318 148.999L26.5818 151.567C27.8206 152.505 29.2154 153.309 30.7663 153.98C32.3074 154.623 33.7746 155.057 35.1681 155.283C36.5616 155.509 37.6613 155.48 38.4673 155.195Z" fill="#FFF5E5"/>
<path d="M27.7002 111.318C26.1168 111.152 24.2078 111.975 21.9733 113.787C24.4245 116.711 28.463 119.904 34.0888 123.367L33.6247 127.81C30.3858 125.9 27.5473 123.988 25.1092 122.074C22.6418 120.156 20.6845 118.321 19.2372 116.569C18.155 117.849 17.2602 119.179 16.553 120.557C15.8165 121.933 15.3885 123.192 15.269 124.336L15.2231 124.776L11.4859 123.096C11.8482 120.762 12.8557 118.496 14.5082 116.298C16.1344 114.066 18.1713 112.16 20.619 110.578L13.274 109.81L13.7013 105.72L20.8264 106.464C18.9577 104.491 17.4614 102.215 16.3376 99.6374C15.2168 97.0305 14.6833 94.6182 14.7371 92.4007L18.6968 91.525L18.6509 91.9648C18.5314 93.1084 18.6898 94.4291 19.1262 95.9272C19.5332 97.4221 20.1338 98.9077 20.9281 100.384C22.7356 98.972 25.0299 97.5814 27.811 96.212C30.5952 94.8133 33.7676 93.5293 37.3282 92.3599L36.8411 97.022C30.7537 99.1131 26.1647 101.331 23.0741 103.676C23.885 104.709 24.7321 105.539 25.6152 106.164C26.4691 106.787 27.3065 107.141 28.1275 107.227L35.6924 108.018L35.2651 112.108L27.7002 111.318Z" fill="#FFF5E5"/>
<path d="M38.385 76.2328C39.5551 78.6024 40.319 81.0751 40.6767 83.6507C41.0078 86.2139 40.655 88.6037 39.6185 90.8203C39.3188 91.4612 38.9088 91.9204 38.3885 92.1978C37.8808 92.4485 37.3732 92.4553 36.8658 92.218C35.3435 91.5062 33.8697 90.3776 32.4444 88.8324C31.019 87.2871 29.8156 85.4063 28.8342 83.19C27.8528 80.9736 27.2296 78.583 26.9644 76.0181L21.6802 75.9392L23.6471 71.7331L47.8534 72.1661L45.8865 76.3722L38.385 76.2328ZM36.4718 87.0055C36.7121 87.1179 36.8947 87.0406 37.0196 86.7735C37.3693 86.0258 37.2796 84.6169 36.7504 82.547C36.1946 80.4645 35.3806 78.3427 34.3083 76.1815L30.5469 76.0824C30.7719 77.6196 31.2016 79.1712 31.8362 80.7372C32.4833 82.2765 33.2241 83.6155 34.0585 84.7542C34.8929 85.8929 35.6973 86.6434 36.4718 87.0055Z" fill="#FFF5E5"/>
<path d="M44.2475 41.8949L49.3067 46.047L46.7818 49.1235L44.6282 47.3561L41.5984 51.0479L55.7845 62.6904L53.1474 65.9036L38.9613 54.2611L35.9314 57.9529L38.085 59.7204L35.5601 62.7969L30.501 58.6449L44.2475 41.8949Z" fill="#FFF5E5"/>
<path d="M70.6492 49.8811C68.7181 51.2858 66.7338 52.0912 64.6964 52.2973C62.6828 52.4861 60.7863 52.134 59.0067 51.2412C57.2271 50.3484 55.6869 49.0079 54.3863 47.2199C53.0162 45.3365 52.2639 43.35 52.1293 41.2606C51.9774 39.1473 52.4107 37.1369 53.4292 35.2294C54.4304 33.2981 55.9085 31.6214 57.8634 30.1993C59.3177 29.1415 60.7666 28.4521 62.2102 28.1311C63.6537 27.8102 64.9856 27.8621 66.2059 28.2868C67.4089 28.6877 68.4006 29.4245 69.181 30.4974C69.9614 31.5702 70.3278 32.7254 70.2803 33.9631C70.2154 35.1769 69.7787 36.4059 68.9704 37.6501C70.6675 37.327 72.2931 37.2564 73.8472 37.4383C75.2259 39.5341 75.6217 41.707 75.0345 43.9569C74.4712 46.1895 73.0094 48.1642 70.6492 49.8811ZM57.9624 44.6185C59.2977 46.4543 60.8996 47.604 62.768 48.0676C64.6191 48.5075 66.4744 48.051 68.334 46.6983C69.4784 45.8659 70.329 44.9555 70.886 43.9671C71.4494 42.9374 71.5187 42.0303 71.0938 41.2458C69.9277 41.1462 68.6283 41.2893 67.1956 41.6753C65.7694 42.0201 64.5914 42.5306 63.6617 43.207L63.4471 43.363L61.314 40.4306L64.0676 38.4276C65.1404 37.6472 65.8166 36.7726 66.0961 35.8037C66.3756 34.8348 66.2292 33.957 65.6569 33.1702C65.0673 32.3596 64.2415 31.9761 63.1794 32.0195C62.1412 32.0456 61.0141 32.5009 59.7982 33.3854C58.5824 34.2698 57.6645 35.3385 57.0448 36.5913C56.4315 37.803 56.1823 39.1144 56.2973 40.5254C56.4362 41.9191 56.9912 43.2835 57.9624 44.6185Z" fill="#FFF5E5"/>
<path d="M79.5225 18.332C80.457 17.9693 81.3326 17.7401 82.1493 17.6445C82.966 17.5489 83.8972 17.5037 84.9428 17.509C85.4572 17.5307 85.961 17.525 86.454 17.4917C86.9746 17.4478 87.4135 17.3565 87.7708 17.2178C88.5129 16.9298 88.6995 16.3514 88.3307 15.4826L88.1134 15.0451L91.3813 14.2986C91.7046 14.8056 91.9729 15.334 92.1863 15.8836C92.6556 17.0929 92.5984 18.1271 92.0147 18.9861C91.431 19.8451 90.6307 20.4719 89.6138 20.8666C89.0092 21.1013 88.4 21.2428 87.7864 21.2912C87.1727 21.3397 86.4033 21.3537 85.4783 21.3332C84.5258 21.3234 83.7618 21.3511 83.1863 21.4164C82.6001 21.4541 82.0321 21.5797 81.4825 21.793C80.5205 22.1664 79.8661 22.7208 79.5191 23.4563C79.1614 24.1644 79.1159 24.8619 79.3826 25.549C79.6812 26.3186 80.2586 26.8692 81.1148 27.2011C81.9877 27.4947 82.9876 27.4229 84.1144 26.9856L86.2169 26.1696L87.5289 29.55L85.3028 30.4141C84.3133 30.7981 83.6123 31.3547 83.1997 32.0841C82.8039 32.7753 82.7606 33.5195 83.0699 34.3165C83.4006 35.1685 84.0162 35.736 84.9166 36.019C85.8445 36.2913 87.1467 36.1022 88.8232 35.4515C90.5272 34.7902 91.7024 33.9071 92.3489 32.8024C92.9846 31.6702 93.145 30.4537 92.8299 29.1529L97.1506 29.0414C97.4551 30.3146 97.368 31.5976 96.8893 32.8902C96.4 34.1553 95.5749 35.3294 94.414 36.4124C93.27 37.4572 91.8597 38.305 90.1832 38.9557C87.4074 40.033 85.0503 40.3153 83.112 39.8027C81.2013 39.2793 79.8885 38.0969 79.1739 36.2555C78.7792 35.2386 78.6661 34.2548 78.8347 33.3039C79.02 32.3149 79.4809 31.4245 80.2172 30.6327C79.0632 30.5114 78.0354 30.1039 77.1338 29.4102C76.2596 28.7059 75.6198 27.8316 75.2145 26.7872C74.8198 25.7703 74.6938 24.7124 74.8365 23.6134C74.9792 22.5145 75.4386 21.4982 76.2147 20.5645C77.0182 19.6201 78.1209 18.876 79.5225 18.332Z" fill="#FFF5E5"/>
<path d="M105.297 34.5073C104.426 34.6631 103.649 34.5026 102.965 34.026C102.281 33.5494 101.861 32.8758 101.705 32.0052C101.549 31.1346 101.71 30.3572 102.186 29.673C102.663 28.9887 103.336 28.5688 104.207 28.413C105.078 28.2573 105.855 28.4177 106.539 28.8943C107.223 29.3709 107.643 30.0445 107.799 30.9151C107.955 31.7857 107.794 32.5632 107.318 33.2474C106.841 33.9316 106.168 34.3516 105.297 34.5073ZM102.366 5.56188L105.574 24.7543L101.656 25.4551L98.0126 6.34053L102.366 5.56188Z" fill="#FFF5E5"/>
</svg>
