<svg width="346" height="255" viewBox="0 0 346 255" fill="none" xmlns="http://www.w3.org/2000/svg">
<path d="M320.804 23.2412C321.831 23.3411 323.015 23.0417 324.357 22.3429C325.728 21.6469 327.146 20.615 328.612 19.247C327.065 17.4969 324.795 15.558 321.803 13.4304C318.837 11.335 315.466 9.30375 311.688 7.33665L312.159 2.49514C316.278 4.61388 320.027 6.87442 323.407 9.27674C326.816 11.6819 329.539 13.9907 331.574 16.2029C333.034 14.5974 334.112 13.1028 334.81 11.7193C335.537 10.3386 336.06 8.76049 336.381 6.98487L340.606 8.77332C340.141 11.4235 338.778 14.1641 336.518 16.995C334.255 19.8553 331.629 22.1915 328.638 24.0036L338.849 24.9972L338.425 29.3546L328.258 28.3652C330.843 30.7198 332.957 33.5024 334.599 36.7132C336.271 39.9267 337.08 42.8786 337.025 45.5687L332.579 46.5134C332.607 44.7093 332.398 43.0451 331.954 41.5208C331.537 40.0288 330.783 38.3411 329.692 36.4578C327.268 38.2361 324.15 39.9913 320.338 41.7234C316.526 43.4555 312.381 44.9626 307.902 46.2447L308.377 41.3592C312.466 40.128 316.184 38.757 319.53 37.2461C322.876 35.7353 325.478 34.2557 327.337 32.8075C326.263 31.37 325.177 30.198 324.081 29.2916C323.01 28.4173 321.982 27.873 320.996 27.6585L309.817 26.5706L310.241 22.2133L320.804 23.2412Z" fill="#FFF5E5"/>
<path d="M291.104 46.9485L292.133 43.1037L310.716 48.075L309.893 51.1508L324.183 62.7558C326.288 61.732 327.562 60.3942 328.004 58.7423C328.118 58.3152 328.223 57.8091 328.318 57.2243L331.527 59.0898C331.447 59.6177 331.365 60.0383 331.281 60.3515C329.643 66.4747 320.799 69.8156 304.75 70.3745L303.927 73.4503L291.752 70.1933L292.781 66.3485L301.325 68.6342L306.056 50.9483L291.104 46.9485ZM305.939 65.9317C311.756 65.7483 316.434 65.1994 319.975 64.285L308.739 55.4654L305.939 65.9317Z" fill="#FFF5E5"/>
<path d="M310.055 77.6691C312.003 78.4347 313.635 79.5198 314.952 80.9243C316.286 82.367 317.152 83.9905 317.552 85.7947C317.941 87.6263 317.774 89.4613 317.051 91.2996C316.685 92.2325 316.262 92.9851 315.784 93.5574C315.295 94.157 314.713 94.7518 314.037 95.3417C313.373 95.9041 312.976 96.3499 312.846 96.6792C312.706 97.0359 312.721 97.2794 312.892 97.4098C313.09 97.5509 313.45 97.7239 313.971 97.9288L314.712 98.22L312.98 101.055C312.157 100.891 311.513 100.717 311.047 100.533C309.867 100.07 309.102 99.357 308.751 98.3956C308.4 97.4342 308.414 96.4733 308.791 95.513C309.028 94.9093 309.326 94.3929 309.685 93.9637C310.033 93.562 310.509 93.1157 311.114 92.6248C311.729 92.1064 312.222 91.619 312.591 91.1623C312.978 90.7439 313.295 90.2192 313.543 89.5881C314.06 88.2711 314.036 86.9628 313.47 85.6633C312.931 84.3745 311.868 83.2915 310.28 82.4142L306.867 91.0984L303.246 89.6749L306.642 81.0319C304.976 80.7573 303.434 80.9747 302.015 81.684C300.623 82.4041 299.62 83.5461 299.005 85.1101C298.401 86.6466 298.306 88.098 298.719 89.4641C299.122 90.8577 299.958 91.9941 301.228 92.8733L298.561 95.9114C296.687 94.6362 295.444 92.8809 294.834 90.6455C294.224 88.41 294.393 86.0851 295.342 83.6705C296.097 81.7498 297.221 80.1801 298.714 78.9612C300.223 77.7805 301.965 77.0555 303.94 76.7863C305.931 76.5553 307.969 76.8496 310.055 77.6691ZM322.151 88.6C322.846 89.4115 323.408 89.9966 323.837 90.3554C324.283 90.7523 324.739 91.0425 325.205 91.2258C325.452 91.3228 325.671 91.3297 325.862 91.2464C326.081 91.1739 326.223 91.0554 326.287 90.8908C326.384 90.6438 326.314 90.3787 326.077 90.0955C325.857 89.8505 325.461 89.6475 324.891 89.4867L326.667 87.1438C327.018 87.2184 327.276 87.288 327.44 87.3527C328.455 87.7517 329.138 88.4319 329.489 89.3933C329.856 90.3929 329.819 91.4552 329.377 92.5802C328.967 93.6228 328.304 94.344 327.386 94.7437C326.486 95.1816 325.528 95.2011 324.512 94.8021C323.058 94.2306 321.521 93.0245 319.9 91.1839L322.151 88.6ZM326.958 99.9444L324.275 103.024L317.968 96.2212L320.276 93.6123L326.958 99.9444Z" fill="#FFF5E5"/>
<path d="M306.555 110.79C307.803 110.604 308.754 110.253 309.408 109.739C310.063 109.225 310.639 108.516 311.138 107.613C311.224 107.458 311.34 107.186 311.488 106.796L314.153 109.379C314 109.901 313.859 110.278 313.731 110.51C312.149 113.374 309.148 114.815 304.727 114.832C300.331 114.864 295.363 114.073 289.82 112.461C293.536 116.466 297.056 120.582 300.38 124.808L298.413 128.37L276 123.217L278.181 119.268L294.156 123.089C290.347 118.46 286.632 114.27 283.012 110.519L285.043 106.842C292.012 109.04 297.488 110.347 301.469 110.76L289.788 98.248L291.841 94.5317L306.555 110.79Z" fill="#FFF5E5"/>
<path d="M261.029 141.393C262.544 139.547 264.262 138.269 266.182 137.557C268.084 136.868 270.008 136.731 271.955 137.148C273.902 137.564 275.729 138.474 277.438 139.877C279.238 141.356 280.466 143.089 281.121 145.077C281.8 147.085 281.886 149.139 281.38 151.242C280.897 153.363 279.888 155.357 278.354 157.225C277.213 158.615 275.984 159.647 274.667 160.32C273.351 160.994 272.049 161.279 270.761 161.175C269.496 161.09 268.351 160.626 267.325 159.784C266.3 158.942 265.655 157.916 265.39 156.706C265.147 155.515 265.261 154.216 265.73 152.808C264.169 153.548 262.613 154.025 261.063 154.24C259.202 152.558 258.272 150.555 258.274 148.229C258.258 145.927 259.176 143.648 261.029 141.393ZM274.631 143.295C272.877 141.854 271.038 141.144 269.113 141.165C267.21 141.205 265.529 142.114 264.07 143.891C263.172 144.984 262.577 146.079 262.287 147.176C262.001 148.314 262.162 149.21 262.77 149.862C263.924 149.665 265.146 149.2 266.435 148.466C267.729 147.773 268.741 146.983 269.47 146.095L269.639 145.889L272.441 148.191L270.28 150.822C269.438 151.847 269.003 152.864 268.976 153.872C268.95 154.88 269.312 155.693 270.064 156.31C270.838 156.947 271.734 157.11 272.751 156.801C273.749 156.515 274.726 155.79 275.68 154.629C276.634 153.467 277.254 152.201 277.539 150.833C277.827 149.506 277.739 148.174 277.272 146.837C276.787 145.523 275.907 144.343 274.631 143.295Z" fill="#FFF5E5"/>
<path d="M247.272 167.159C247.009 164.53 247.164 161.946 247.734 159.409C248.326 156.893 249.496 154.78 251.246 153.07C251.752 152.575 252.297 152.289 252.882 152.213C253.445 152.156 253.923 152.329 254.314 152.729C255.489 153.931 256.472 155.505 257.263 157.453C258.054 159.401 258.519 161.585 258.659 164.005C258.798 166.424 258.541 168.882 257.888 171.376L262.807 173.308L259.486 176.554L236.978 167.637L240.298 164.391L247.272 167.159ZM252.85 157.747C252.665 157.557 252.467 157.566 252.256 157.772C251.666 158.349 251.254 159.699 251.022 161.823C250.81 163.968 250.826 166.241 251.07 168.641L254.556 170.056C254.886 168.538 255.029 166.934 254.986 165.245C254.921 163.577 254.699 162.063 254.318 160.703C253.937 159.344 253.448 158.359 252.85 157.747Z" fill="#FFF5E5"/>
<path d="M226.739 175.125C228.381 173.828 230.175 173.031 232.12 172.734C234.059 172.479 235.95 172.732 237.792 173.494C239.634 174.256 241.24 175.504 242.61 177.239C243.908 178.881 244.76 180.65 245.168 182.545C245.593 184.463 245.525 186.302 244.961 188.062C244.398 189.822 243.341 191.314 241.791 192.539C241.005 193.16 240.261 193.597 239.56 193.851C238.835 194.123 238.033 194.343 237.152 194.513C236.295 194.664 235.727 194.85 235.45 195.069C235.149 195.306 235.039 195.524 235.121 195.723C235.221 195.945 235.445 196.275 235.792 196.715L236.093 197.096L232.908 198.486C232.546 198.17 232.228 197.839 231.954 197.492C231.168 196.498 230.866 195.497 231.047 194.489C231.228 193.482 231.724 192.659 232.533 192.019C233.019 191.635 233.502 191.367 233.982 191.213C234.461 191.059 235.065 190.92 235.794 190.796C236.61 190.64 237.257 190.485 237.737 190.331C238.217 190.178 238.711 189.9 239.22 189.498C240.562 188.438 241.231 187.026 241.228 185.263C241.225 183.499 240.548 181.762 239.195 180.05C237.751 178.222 236.105 177.137 234.256 176.794C232.408 176.451 230.697 176.901 229.124 178.144C227.851 179.149 227.068 180.369 226.774 181.804C226.498 183.262 226.747 184.718 227.52 186.173L223.652 187.482C222.928 186.138 222.571 184.711 222.58 183.201C222.566 181.709 222.916 180.249 223.629 178.822C224.36 177.417 225.397 176.185 226.739 175.125Z" fill="#FFF5E5"/>
<path d="M214.642 210.636L211.527 205.031L201.787 210.445L204.902 216.05L201.269 218.069L190.526 198.744L194.16 196.724L199.853 206.967L209.593 201.552L203.9 191.31L207.533 189.29L218.276 208.616L214.642 210.636Z" fill="#FFF5E5"/>
<path d="M175.329 212.817C176.065 210.279 177.171 207.939 178.647 205.798C180.133 203.684 182.007 202.159 184.268 201.224C184.922 200.953 185.534 200.891 186.105 201.038C186.649 201.196 187.028 201.534 187.242 202.051C187.884 203.604 188.21 205.432 188.218 207.534C188.226 209.636 187.844 211.836 187.071 214.134C186.299 216.431 185.144 218.615 183.608 220.686L187.453 224.312L183.162 226.087L165.598 209.424L169.889 207.649L175.329 212.817ZM184.013 206.162C183.912 205.917 183.725 205.851 183.453 205.964C182.69 206.279 181.805 207.379 180.798 209.263C179.801 211.174 178.969 213.289 178.301 215.607L181.009 218.22C181.881 216.934 182.611 215.5 183.201 213.916C183.763 212.344 184.12 210.856 184.274 209.452C184.427 208.049 184.34 206.952 184.013 206.162Z" fill="#FFF5E5"/>
<path d="M140.971 223.956C141.293 225.515 142.655 227.086 145.058 228.668C147.103 225.447 148.925 220.632 150.525 214.222L154.899 213.321C154.059 216.986 153.095 220.27 152.007 223.173C150.926 226.104 149.769 228.525 148.537 230.434C150.084 231.079 151.622 231.53 153.15 231.787C154.684 232.073 156.014 232.1 157.14 231.868L157.573 231.778L157.102 235.849C154.768 236.209 152.304 235.934 149.708 235.024C147.09 234.149 144.656 232.784 142.408 230.929L143.898 238.163L139.87 238.992L138.425 231.976C137.109 234.354 135.392 236.469 133.275 238.319C131.129 240.176 128.991 241.414 126.861 242.034L124.829 238.524L125.262 238.435C126.388 238.203 127.599 237.653 128.895 236.784C130.197 235.943 131.431 234.922 132.598 233.718C130.706 232.422 128.686 230.656 126.54 228.419C124.365 226.189 122.181 223.553 119.99 220.513L124.581 219.567C128.415 224.737 131.917 228.44 135.087 230.677C135.826 229.591 136.361 228.533 136.69 227.502C137.026 226.5 137.11 225.595 136.943 224.786L135.409 217.336L139.437 216.507L140.971 223.956Z" fill="#FFF5E5"/>
<path d="M103.917 228.053C105.43 225.886 107.23 224.026 109.315 222.472C111.402 220.948 113.666 220.106 116.108 219.947C116.814 219.902 117.414 220.04 117.908 220.362C118.372 220.686 118.622 221.128 118.658 221.687C118.768 223.364 118.488 225.199 117.82 227.192C117.152 229.186 116.083 231.146 114.613 233.073C113.143 235.001 111.348 236.698 109.228 238.165L111.703 242.835L107.07 243.136L95.7935 221.712L100.427 221.411L103.917 228.053ZM114.28 224.542C114.263 224.277 114.107 224.155 113.813 224.174C112.989 224.227 111.797 224.984 110.238 226.445C108.68 227.935 107.213 229.67 105.835 231.65L107.559 234.995C108.798 234.057 109.951 232.934 111.018 231.623C112.056 230.315 112.872 229.021 113.469 227.741C114.065 226.462 114.335 225.395 114.28 224.542Z" fill="#FFF5E5"/>
<path d="M71.3899 242.813L71.6716 236.274L75.6479 236.446L75.5279 239.229L80.2994 239.435L81.0896 221.1L85.2425 221.279L84.4524 239.614L89.2239 239.819L89.3439 237.036L93.3201 237.207L93.0383 243.746L71.3899 242.813Z" fill="#FFF5E5"/>
<path d="M59.7976 218.203C62.1585 218.562 64.1358 219.384 65.7296 220.67C67.2943 221.951 68.3955 223.535 69.0334 225.421C69.6712 227.307 69.8241 229.343 69.492 231.529C69.1421 233.832 68.2806 235.773 66.9073 237.354C65.5296 238.964 63.8081 240.089 61.7427 240.729C59.6729 241.399 57.443 241.552 55.0529 241.189C53.275 240.919 51.7599 240.39 50.5078 239.604C49.2556 238.817 48.3449 237.844 47.7756 236.684C47.202 235.553 47.0148 234.332 47.214 233.02C47.4133 231.708 47.9649 230.629 48.8689 229.783C49.7684 228.965 50.9429 228.398 52.3925 228.082C50.9585 227.118 49.7528 226.025 48.7755 224.803C49.2685 222.344 50.5147 220.52 52.514 219.333C54.4842 218.141 56.9121 217.765 59.7976 218.203ZM65.12 230.865C65.461 228.621 65.1301 226.677 64.1273 225.034C63.1202 223.419 61.4799 222.44 59.2064 222.094C57.8074 221.882 56.5624 221.931 55.4714 222.242C54.3468 222.579 53.6598 223.175 53.4104 224.032C54.1697 224.922 55.1944 225.734 56.4846 226.467C57.7412 227.224 58.9378 227.689 60.0746 227.862L60.3369 227.902L59.7922 231.487L56.4258 230.975C55.1142 230.776 54.0184 230.923 53.1384 231.415C52.2585 231.908 51.7454 232.635 51.5993 233.597C51.4488 234.588 51.7664 235.441 52.5522 236.157C53.3089 236.868 54.4305 237.337 55.917 237.563C57.4034 237.789 58.8075 237.674 60.129 237.219C61.417 236.788 62.5162 236.031 63.4264 234.946C64.3075 233.858 64.872 232.497 65.12 230.865Z" fill="#FFF5E5"/>
<path d="M32.7403 236.401C31.772 236.141 30.9301 235.809 30.2145 235.404C29.4988 234.999 28.7206 234.486 27.8799 233.864C27.4775 233.543 27.0676 233.25 26.65 232.986C26.2039 232.714 25.7958 232.529 25.4255 232.43C24.6566 232.224 24.1645 232.58 23.9491 233.499L23.8661 233.981L20.7879 232.654C20.8264 232.054 20.9218 231.469 21.0742 230.899C21.4094 229.646 22.0661 228.845 23.0444 228.497C24.0227 228.148 25.0387 228.115 26.0925 228.396C26.719 228.564 27.2942 228.81 27.8181 229.133C28.342 229.456 28.9712 229.899 29.7056 230.462C30.4686 231.032 31.1016 231.461 31.6046 231.748C32.1 232.064 32.6325 232.298 33.2021 232.45C34.1989 232.717 35.0545 232.656 35.7688 232.267C36.4755 231.907 36.9241 231.37 37.1146 230.658C37.3279 229.861 37.1871 229.076 36.692 228.302C36.1609 227.55 35.3115 227.018 34.1438 226.705L31.9652 226.122L32.9023 222.619L35.2091 223.236C36.2344 223.511 37.1289 223.475 37.8925 223.13C38.6201 222.806 39.0944 222.231 39.3153 221.405C39.5515 220.522 39.3898 219.701 38.8302 218.941C38.2421 218.173 37.0794 217.557 35.3422 217.092C33.5764 216.62 32.1066 216.639 30.9326 217.148C29.7509 217.687 28.9033 218.574 28.3895 219.81L24.8365 217.349C25.3426 216.141 26.1704 215.157 27.3199 214.397C28.4618 213.665 29.821 213.204 31.3973 213.016C32.9376 212.848 34.5763 212.996 36.3136 213.461C39.19 214.231 41.259 215.394 42.5207 216.953C43.7538 218.503 44.1152 220.233 43.6047 222.141C43.3228 223.194 42.8331 224.055 42.1356 224.723C41.4021 225.412 40.5044 225.858 39.4427 226.063C40.3023 226.842 40.8912 227.778 41.2094 228.87C41.4991 229.955 41.4992 231.038 41.2097 232.12C40.9278 233.174 40.4048 234.102 39.6408 234.905C38.8767 235.708 37.9059 236.257 36.7282 236.552C35.5221 236.84 34.1928 236.789 32.7403 236.401Z" fill="#FFF5E5"/>
<path d="M19.8423 208.478C20.6748 208.777 21.2689 209.303 21.6248 210.057C21.9807 210.811 22.0093 211.605 21.7106 212.437C21.412 213.27 20.8856 213.864 20.1315 214.22C19.3774 214.575 18.5841 214.604 17.7516 214.305C16.9192 214.007 16.325 213.48 15.9691 212.726C15.6132 211.972 15.5846 211.179 15.8833 210.346C16.1819 209.514 16.7083 208.92 17.4624 208.564C18.2165 208.208 19.0098 208.179 19.8423 208.478ZM7.96495 235.037L14.7436 216.797L18.4898 218.141L12.1273 236.53L7.96495 235.037Z" fill="#FFF5E5"/>
</svg>
